<?xml version="1.0" encoding="UTF-8"?>
<svg version="1.1" xmlns="http://www.w3.org/2000/svg" width="310" height="299">
<path d="M0 0 C102.3 0 204.6 0 310 0 C310 98.67 310 197.34 310 299 C207.7 299 105.4 299 0 299 C0 200.33 0 101.66 0 0 Z " fill="#FEFEFE" transform="translate(0,0)"/>
<path d="M0 0 C5.625 -0.25 5.625 -0.25 9 2 C9 2.66 9 3.32 9 4 C9.721875 4.04125 10.44375 4.0825 11.1875 4.125 C16.60233986 5.80961685 19.34050622 11.27201106 22 16 C23.33774222 19.12801445 24.57632186 22.28530817 25.81640625 25.453125 C26.73839975 28.1286352 26.73839975 28.1286352 29 29 C33.75083902 29.66511746 37.02478507 29.62413755 41.125 27 C44.10625256 24.11009501 46.7606083 20.88357789 49.38671875 17.671875 C51 16 51 16 54 15 C56.33299825 14.96045766 58.66708189 14.95598268 61 15 C61.35384766 15.97646484 61.35384766 15.97646484 61.71484375 16.97265625 C62.13894531 17.64167969 62.56304687 18.31070313 63 19 C65.12165513 19.51847519 65.12165513 19.51847519 67.5625 19.4375 C73.38421719 19.79084122 77.20173078 21.82328026 82 25 C82.969375 25.5775 83.93875 26.155 84.9375 26.75 C87.9376246 30.0228632 88.67615489 33.62038041 89 38 C88.44049049 41.27460301 87.62405083 42.90075934 85 45 C84.34 45 83.68 45 83 45 C83 46.32 83 47.64 83 49 C81.3629001 51.24024196 80.11128866 51.95826675 77.5 52.9375 C74.88643588 53.79293537 74.88643588 53.79293537 73.5625 56 C71.43005074 58.72953506 69.26976353 58.93103885 66 60 C64.85034925 60.77722867 63.72606474 61.5928476 62.625 62.4375 C59.49315692 64.81242314 56.48696906 66.00111731 52.78515625 67.2421875 C50.31274521 68.29174492 48.84462951 70.08949086 47 72 C45.68 72 44.36 72 43 72 C42.6596875 72.84304687 42.6596875 72.84304687 42.3125 73.703125 C40.63779358 76.63386123 38.49006244 78.47709417 36 80.75 C30.58307943 86.04984016 29.21013303 89.27200681 28.875 96.8125 C28.91625 97.534375 28.9575 98.25625 29 99 C29 104 29 104 27.5 105.625 C26.7575 106.305625 26.7575 106.305625 26 107 C26.99 107.33 27.98 107.66 29 108 C28.67 108.99 28.34 109.98 28 111 C28.38932856 113.14255793 28.38932856 113.14255793 29 115 C28.01 115.495 28.01 115.495 27 116 C27.33 116.99 27.66 117.98 28 119 C27.814375 119.61875 27.62875 120.2375 27.4375 120.875 C26.78652432 123.04886927 26.78652432 123.04886927 27.875 125.1875 C29.17615268 128.44038169 29.45934469 131.34779364 29.75390625 134.81640625 C29.99454846 136.95162837 30.43211174 138.93025848 31 141 C35.92991345 141.28999491 39.09251769 141.19703098 43 138 C43 137.01 43 136.02 43 135 C46.3 134.34 49.6 133.68 53 133 C51.04364844 137.63346423 49.50306032 139.74846984 45 142 C44.01 142.66 43.02 143.32 42 144 C41.01 144 40.02 144 39 144 C38.67 145.65 38.34 147.3 38 149 C36.35 149.33 34.7 149.66 33 150 C32.87625 150.721875 32.7525 151.44375 32.625 152.1875 C31.63347507 156.64936216 30.51541594 159.96395896 27 163 C27.32742187 163.68449219 27.65484375 164.36898437 27.9921875 165.07421875 C29.16848212 168.48912059 29.19777146 171.21031284 29.125 174.8125 C29.10695312 175.97394531 29.08890625 177.13539063 29.0703125 178.33203125 C29.04710937 179.21246094 29.02390625 180.09289062 29 181 C29.66 181 30.32 181 31 181 C31.061875 181.99 31.12375 182.98 31.1875 184 C31.74518334 188.05960664 33.54999535 190.74889226 35.8125 194.09765625 C37 196 37 196 37.9375 199 C40.69713629 206.79191422 48.17255962 215.44837308 55 220 C56.88480687 220.43978827 58.77082527 220.87897881 60.671875 221.2421875 C63 222 63 222 66.05078125 224.0234375 C70.89195145 226.88454184 75.94487671 226.6713808 81.4375 226.75 C82.45521484 226.77964844 83.47292969 226.80929687 84.52148438 226.83984375 C87.01440028 226.91006673 89.50640699 226.96299645 92 227 C92.33 226.34 92.66 225.68 93 225 C93.33 225.33 93.66 225.66 94 226 C95.68183948 226.23287008 97.3712416 226.41264166 99.0625 226.5625 C99.98160156 226.64628906 100.90070313 226.73007812 101.84765625 226.81640625 C102.55792969 226.87699219 103.26820313 226.93757812 104 227 C104 226.34 104 225.68 104 225 C106.31 225 108.62 225 111 225 C111.33 225.66 111.66 226.32 112 227 C112.6290625 226.97679687 113.258125 226.95359375 113.90625 226.9296875 C119.6450776 226.80868812 124.55107852 227.11764531 130 229 C130.33 229.99 130.66 230.98 131 232 C128.06013398 233.67067276 125.85837078 234.26905426 122.48828125 234.37890625 C121.64845703 234.41306641 120.80863281 234.44722656 119.94335938 234.48242188 C118.64108398 234.52206055 118.64108398 234.52206055 117.3125 234.5625 C115.57928019 234.62217863 113.84618901 234.6857657 112.11328125 234.75390625 C111.34798096 234.77783447 110.58268066 234.8017627 109.79418945 234.82641602 C107.9778277 234.81026317 107.9778277 234.81026317 107 236 C105.00458104 236.22528924 103.00840136 236.44761095 101.0078125 236.62109375 C98.69284593 236.92253842 98.69284593 236.92253842 96 239 C93.36328125 239.34375 93.36328125 239.34375 90.3125 239.5 C85.27264677 239.84044847 80.85778096 240.65992249 76 242 C72.6875 242.75 72.6875 242.75 70 243 C69.01 242.34 68.02 241.68 67 241 C64.87764193 240.8770062 62.75088537 240.82444318 60.625 240.8125 C51.73552437 240.32376327 44.83073367 236.68797947 37.8203125 231.3359375 C35.93211396 229.80716947 35.93211396 229.80716947 33 229 C32.5875 228.278125 32.175 227.55625 31.75 226.8125 C30.09624565 224.15468051 28.90327608 223.00823945 26.5 221.125 C22.78146592 218.09392601 21.65214801 215.46079961 20 211 C19.195625 210.01 19.195625 210.01 18.375 209 C16.41909079 206.15504115 16.41660975 203.39239367 16 200 C15.54173828 198.86304688 15.54173828 198.86304688 15.07421875 197.703125 C13.83005551 194.57235786 13.10551685 191.47482584 12.375 188.1875 C12.11460937 187.02605469 11.85421875 185.86460937 11.5859375 184.66796875 C11.39257812 183.78753906 11.19921875 182.90710938 11 182 C7.83675608 180.96146706 7.83675608 180.96146706 4 181 C-0.81554238 183.71912091 -4.26872618 188.32032131 -7.54296875 192.6796875 C-9 194 -9 194 -13 194 C-13.04060547 195.12728516 -13.04060547 195.12728516 -13.08203125 196.27734375 C-14 199 -14 199 -16.94921875 200.87890625 C-18.1868263 201.45857881 -19.43348923 202.01922316 -20.6875 202.5625 C-27.15965356 205.49572627 -33.0049711 208.34455883 -37.5 214.0625 C-40.39344673 217.48778376 -42.79353889 219.2830771 -47 221 C-48.29650194 221.63607089 -49.58788112 222.28265004 -50.875 222.9375 C-51.55304688 223.27007812 -52.23109375 223.60265625 -52.9296875 223.9453125 C-54.31083178 224.6489143 -55.67138162 225.39446936 -57.0078125 226.1796875 C-62.19948964 229.13181764 -65.15549601 229.2663092 -71 228 C-72.00933594 227.87238281 -72.00933594 227.87238281 -73.0390625 227.7421875 C-77.23996758 226.15220351 -79.05607087 220.8128699 -81 217 C-81.67735217 215.00359361 -82.34838935 213.00495586 -83 211 C-84.485 210.01 -84.485 210.01 -86 209 C-86.80078125 206.25 -86.80078125 206.25 -87.3125 203 C-87.49425781 201.9275 -87.67601563 200.855 -87.86328125 199.75 C-87.93095703 198.38875 -87.93095703 198.38875 -88 197 C-85.8614515 194.8614515 -84.86724686 194.57344937 -82 194 C-81.67 192.35 -81.34 190.7 -81 189 C-80.36191406 188.82984375 -79.72382812 188.6596875 -79.06640625 188.484375 C-78.24011719 188.24203125 -77.41382812 187.9996875 -76.5625 187.75 C-75.73878906 187.51796875 -74.91507812 187.2859375 -74.06640625 187.046875 C-73.38449219 186.70140625 -72.70257813 186.3559375 -72 186 C-71.40879471 184.07822443 -71.40879471 184.07822443 -71 182 C-69.3984375 180.32421875 -69.3984375 180.32421875 -67.375 178.6875 C-64.54439269 176.3057097 -61.74484686 173.92406254 -59.0625 171.375 C-58.49660156 170.84648437 -57.93070312 170.31796875 -57.34765625 169.7734375 C-55.81145184 168.02822896 -55.81145184 168.02822896 -55.5390625 165.50390625 C-54.86178394 162.3579964 -53.80161905 161.5395717 -51.3125 159.5625 C-50.59320313 158.96824219 -49.87390625 158.37398437 -49.1328125 157.76171875 C-48.42898437 157.18035156 -47.72515625 156.59898437 -47 156 C-44.16135109 153.40736733 -41.53067198 150.8998351 -39.5625 147.5625 C-36.79282725 143.0202367 -33.10743337 138.70247779 -28 137 C-26.29144978 133.99992729 -26.29144978 133.99992729 -25 131 C-24.34 131 -23.68 131 -23 131 C-23 130.34 -23 129.68 -23 129 C-22.071875 128.649375 -21.14375 128.29875 -20.1875 127.9375 C-16.67150602 125.80032719 -16.29438665 124.61723644 -14.95703125 120.88671875 C-13.39070928 117.79882687 -10.83029474 115.98875092 -8.19140625 113.81640625 C-1.36530798 108.15841036 5.22897573 102.03890691 7 93 C7.11444754 91.31522575 7.17476539 89.62610899 7.1875 87.9375 C7.20167969 87.08027344 7.21585938 86.22304687 7.23046875 85.33984375 C7.15846085 82.72801691 7.15846085 82.72801691 5 80 C2.96983204 79.52203776 2.96983204 79.52203776 0.6875 79.625 C-0.07175781 79.61726563 -0.83101562 79.60953125 -1.61328125 79.6015625 C-4.60533839 80.10105485 -6.43851921 81.38992636 -9 83 C-11.06515198 83.87742209 -13.15030032 84.70880882 -15.25 85.5 C-16.38695312 85.933125 -17.52390625 86.36625 -18.6953125 86.8125 C-22.15615441 88.05611222 -25.63385268 89.11736597 -29.1953125 90.03125 C-31.26128206 90.92522413 -31.26128206 90.92522413 -32.3515625 93.53515625 C-34 96 -34 96 -36.890625 96.71484375 C-37.99921875 96.78832031 -39.1078125 96.86179687 -40.25 96.9375 C-45.94116853 97.57617558 -48.61900308 98.67868895 -52.56640625 102.734375 C-54 104 -54 104 -56.9375 104.375 C-57.618125 104.25125 -58.29875 104.1275 -59 104 C-59 105.32 -59 106.64 -59 108 C-59.71285156 108.268125 -60.42570312 108.53625 -61.16015625 108.8125 C-67.44958001 111.38583085 -71.1940714 113.86864865 -75.375 119.1953125 C-77.93013088 122.03298189 -80.3789212 122.88582191 -84 124 C-84.99 124 -85.98 124 -87 124 C-87 125.32 -87 126.64 -87 128 C-88.63978318 129.04349839 -90.31464976 130.03182008 -92 131 C-93.19353748 132.1391622 -94.35857715 133.30862429 -95.5 134.5 C-98.14483519 137.23089273 -100.63552407 139.18136436 -104 141 C-104.639375 141.495 -105.27875 141.99 -105.9375 142.5 C-112.41549296 147.21126761 -112.41549296 147.21126761 -116.8125 146.625 C-117.534375 146.41875 -118.25625 146.2125 -119 146 C-119.33 146.33 -119.66 146.66 -120 147 C-123.4375 147.1875 -123.4375 147.1875 -127 147 C-127.66 146.34 -128.32 145.68 -129 145 C-131.53759699 144.67775597 -131.53759699 144.67775597 -134.48828125 144.69140625 C-135.58720703 144.66626953 -136.68613281 144.64113281 -137.81835938 144.61523438 C-140.13601444 144.58025579 -142.45372832 144.54896765 -144.77148438 144.52148438 C-145.87427734 144.49505859 -146.97707031 144.46863281 -148.11328125 144.44140625 C-149.12173096 144.42795166 -150.13018066 144.41449707 -151.16918945 144.40063477 C-154.40081212 143.94327446 -156.33528134 142.84025172 -159 141 C-156.77810176 138.77810176 -154.91517292 138.07401108 -152 137 C-152 135.68 -152 134.36 -152 133 C-151.45472656 132.84144531 -150.90945312 132.68289062 -150.34765625 132.51953125 C-142.17488286 129.99086119 -135.56617638 127.16789943 -130.0625 120.4375 C-126.55804623 116.18711832 -123.44154854 114.50463528 -118.19921875 112.94921875 C-115.50948759 111.78828683 -114.61418839 110.39768334 -113 108 C-109.00370552 105.21470384 -104.50011723 103.26854679 -100.109375 101.18359375 C-97.85527334 100.17819956 -97.85527334 100.17819956 -97 98 C-94.99700196 97.54029553 -92.99374516 97.08163746 -90.98828125 96.6328125 C-88.25830682 95.76394048 -86.93449292 94.06345911 -85 92 C-83 91.33333333 -81 90.66666667 -79 90 C-77.16610396 88.78270675 -75.43688581 87.48645661 -73.7109375 86.12109375 C-72 85 -72 85 -69.8515625 84.47265625 C-69.24054688 84.31667969 -68.62953125 84.16070312 -68 84 C-67.67 83.34 -67.34 82.68 -67 82 C-64.33574027 81.27748889 -61.68842941 80.61548292 -59 80 C-55.73185596 79.30059064 -55.73185596 79.30059064 -53 78 C-52.525625 77.195625 -52.05125 76.39125 -51.5625 75.5625 C-49.42795419 72.06184487 -46.82505996 71.00919479 -43 70 C-39.67249318 69.50038892 -36.3582718 69.1959555 -33 69 C-33 68.01 -33 67.02 -33 66 C-31.783125 65.7525 -30.56625 65.505 -29.3125 65.25 C-25.35930441 64.27733325 -23.12364496 62.63043786 -20 60 C-19.071875 59.71125 -18.14375 59.4225 -17.1875 59.125 C-14.13164972 58.04646461 -12.50373234 56.97437179 -10 55 C-6.73996912 52.44383942 -4.00464658 51.16802192 0 50 C1.40707224 49.33850117 2.80255831 48.65197332 4.1875 47.9453125 C4.90292969 47.58195801 5.61835938 47.21860352 6.35546875 46.84423828 C6.89816406 46.56563965 7.44085938 46.28704102 8 46 C8.49588915 30.85454738 8.49588915 30.85454738 6 16 C5.76796875 15.01193359 5.76796875 15.01193359 5.53125 14.00390625 C4.79008974 11.20820614 3.69667111 8.58356769 2.62109375 5.90234375 C2 4 2 4 2 1 C1.01 0.505 1.01 0.505 0 0 Z " fill="#040100" transform="translate(165,34)"/>
<path d="M0 0 C1.53549231 3.07098462 1.4426817 6.29580377 1.71875 9.6875 C1.87136047 12.02268455 1.87136047 12.02268455 3 14 C3.29984725 18.57753014 3.27817228 23.16381623 3.3125 27.75 C3.35600586 29.66425781 3.35600586 29.66425781 3.40039062 31.6171875 C3.48021824 43.38254985 3.48021824 43.38254985 -1 48 C-4 50 -4 50 -7 50 C-7 50.66 -7 51.32 -7 52 C-10.36683915 54.43160605 -11.73350364 55 -16 55 C-16.33 55.99 -16.66 56.98 -17 58 C-19.109375 59.0625 -19.109375 59.0625 -21.75 60 C-28.16317033 62.38577873 -28.16317033 62.38577873 -33.5 66.5625 C-35 68 -35 68 -37.375 68.9375 C-40.126476 69.87960783 -40.126476 69.87960783 -42.3125 72.0625 C-45.43131361 74.31094702 -47.34028835 74.48695215 -51.06640625 74.796875 C-53.66028678 75.06936346 -55.71438226 75.75329942 -58 77 C-58.33 77.99 -58.66 78.98 -59 80 C-60.2375 80.12375 -61.475 80.2475 -62.75 80.375 C-65.8762197 80.75746305 -68.28879237 81.30549523 -71 83 C-74 81.3125 -74 81.3125 -77 79 C-77.42578125 76.57421875 -77.42578125 76.57421875 -77 74 C-75.35546875 72.15625 -75.35546875 72.15625 -73.1875 70.5 C-69.95260301 67.87803086 -68.02567841 65.66551331 -66 62 C-61.65217391 57.2173913 -61.65217391 57.2173913 -58 56 C-57.731875 55.278125 -57.46375 54.55625 -57.1875 53.8125 C-55.78792437 50.4977156 -53.97225072 48.81108256 -51.33984375 46.4296875 C-49.74286991 44.9252405 -49.74286991 44.9252405 -49 42 C-48.34 42 -47.68 42 -47 42 C-47 41.01 -47 40.02 -47 39 C-45.34467377 37.98133771 -43.67739862 36.98189187 -42 36 C-41.67 35.01 -41.34 34.02 -41 33 C-39.88625 32.4121875 -39.88625 32.4121875 -38.75 31.8125 C-35.90550665 29.93772029 -35.1885303 28.87844199 -33.5625 26 C-31.26763706 22.03614583 -29.14130548 20.98437554 -25 19 C-23.59855754 17.20971802 -22.41934636 15.38845494 -21.2734375 13.42578125 C-20.85320312 12.95527344 -20.43296875 12.48476562 -20 12 C-18.68 12 -17.36 12 -16 12 C-16 11.01 -16 10.02 -16 9 C-15.01 8.67 -14.02 8.34 -13 8 C-12.505 7.34 -12.01 6.68 -11.5 6 C-10 4 -10 4 -7 3 C-6.525625 2.484375 -6.05125 1.96875 -5.5625 1.4375 C-4 0 -4 0 0 0 Z " fill="#FEFEFE" transform="translate(171,149)"/>
<path d="M0 0 C2.475 0.495 2.475 0.495 5 1 C5 1.66 5 2.32 5 3 C6.010625 3 7.02125 3 8.0625 3 C12.42189975 3.71770606 14.80870343 5.6973836 17.5546875 9.08984375 C21.77480952 17.58711646 22.80807974 32.95174305 20 42 C19.855625 42.86625 19.71125 43.7325 19.5625 44.625 C19 47 19 47 17 49 C11.35728405 49.47022633 7.9109136 49.08359691 3 46 C1.125 44.3125 1.125 44.3125 0 43 C0.99 43 1.98 43 3 43 C3.22882241 39.83447255 3.42924138 36.66773036 3.625 33.5 C3.68945312 32.613125 3.75390625 31.72625 3.8203125 30.8125 C4.15652488 25.09688951 3.83681159 20.44795818 2 15 C1.34 14.67 0.68 14.34 0 14 C0 9.38 0 4.76 0 0 Z " fill="#040100" transform="translate(233,142)"/>
<path d="M0 0 C3.49234244 -0.09978121 6.59437148 0.22157062 10 1 C9.42655063 3.86724686 9.1385485 4.8614515 7 7 C4.38419521 6.6730244 2.35921863 6.17960932 0 5 C0 3.35 0 1.7 0 0 Z " fill="#030102" transform="translate(200,40)"/>
</svg>
